<?xml version="1.0" encoding="UTF-8" standalone="no"?>
<svg width="68px" height="12px" viewBox="0 0 68 12" version="1.1" xmlns="http://www.w3.org/2000/svg" xmlns:xlink="http://www.w3.org/1999/xlink" xmlns:sketch="http://www.bohemiancoding.com/sketch/ns">
    <!-- Generator: Sketch 3.5.2 (25235) - http://www.bohemiancoding.com/sketch -->
    <title>Group 3</title>
    <desc>Created with Sketch.</desc>
    <defs></defs>
    <g id="Page-1" stroke="none" stroke-width="1" fill="none" fill-rule="evenodd" sketch:type="MSPage">
        <g id="Group-3" sketch:type="MSLayerGroup" fill="#A4A4A4">
            <path d="M35.8934709,11.5304 L35.8934709,3.8976 L32.9491171,9.5816 L31.7424147,9.5816 L28.798061,3.8976 L28.798061,11.5304 L26.5777286,11.5304 L26.5777286,0 L28.9589546,0 L32.3377212,6.56096 L35.7486666,0 L38.1138032,0 L38.1138032,11.5304 L35.8934709,11.5304 Z M44.1955832,11.6928 C43.5198265,11.6928 42.9084367,11.5764145 42.3613956,11.34364 C41.8143544,11.1108655 41.3477675,10.7941887 40.9616208,10.3936 C40.5754741,9.99301133 40.2778239,9.52746932 40.0686611,8.99696 C39.8594983,8.46645068 39.7549185,7.90888292 39.7549185,7.32424 C39.7549185,6.71794364 39.8568168,6.14684268 40.0606164,5.61092 C40.264416,5.07499732 40.5593848,4.60404203 40.9455315,4.19804 C41.3316782,3.79203797 41.8009466,3.46994786 42.3533509,3.23176 C42.9057552,2.99357214 43.5251895,2.87448 44.2116725,2.87448 C44.8981555,2.87448 45.5122268,2.99357214 46.0539048,3.23176 C46.5955828,3.46994786 47.0568067,3.78933133 47.4375902,4.18992 C47.8183737,4.59050867 48.1079794,5.05605068 48.3064159,5.58656 C48.5048524,6.11706932 48.6040692,6.6692238 48.6040692,7.24304 C48.6040692,7.38378737 48.6013876,7.51911935 48.5960245,7.64904 C48.5906613,7.77896065 48.5772537,7.88722623 48.5558011,7.97384 L42.0396083,7.97384 C42.0717872,8.30946834 42.1522332,8.6071987 42.2809487,8.86704 C42.4096643,9.1268813 42.5759194,9.34882575 42.7797191,9.53288 C42.9835187,9.71693425 43.2141306,9.85767951 43.4715618,9.95512 C43.7289929,10.0525605 43.9971463,10.10128 44.27603,10.10128 C44.7050819,10.10128 45.1099935,9.99572106 45.490777,9.7846 C45.8715606,9.57347894 46.1316694,9.29469507 46.2711112,8.94824 L48.1213882,9.46792 C47.8103256,10.1175232 47.3142418,10.6507312 46.633122,11.06756 C45.9520021,11.4843888 45.1394973,11.6928 44.1955832,11.6928 L44.1955832,11.6928 Z M46.3837368,6.56096 C46.3301053,5.92218347 46.0968119,5.41062859 45.6838494,5.02628 C45.270887,4.64193141 44.7694401,4.44976 44.1794938,4.44976 C43.8898838,4.44976 43.6190489,4.50118615 43.3669809,4.60404 C43.1149129,4.70689385 42.8923456,4.85034575 42.6992722,5.0344 C42.5061989,5.21845425 42.3479884,5.4403987 42.224636,5.70024 C42.1012836,5.9600813 42.0288821,6.2469851 42.0074295,6.56096 L46.3837368,6.56096 Z M57.7589178,11.5304 L55.6029429,11.5304 L55.6029429,6.75584 C55.6029429,6.07375659 55.4849554,5.5757349 55.2489769,5.26176 C55.0129983,4.9477851 54.6858512,4.7908 54.2675256,4.7908 C54.0529997,4.7908 53.8331139,4.83410623 53.6078616,4.92072 C53.3826094,5.00733377 53.1707682,5.12913255 52.9723317,5.28612 C52.7738952,5.44310745 52.5942324,5.62986558 52.433338,5.8464 C52.2724435,6.06293442 52.154456,6.3011187 52.079372,6.56096 L52.079372,11.5304 L49.9233971,11.5304 L49.9233971,3.02064 L51.8702102,3.02064 L51.8702102,4.59592 C52.1812728,4.05458396 52.6317705,3.63234818 53.2217169,3.3292 C53.8116632,3.02605182 54.4766836,2.87448 55.2167981,2.87448 C55.7423867,2.87448 56.1714321,2.97191903 56.5039473,3.1668 C56.8364625,3.36168097 57.0938898,3.6161051 57.2762368,3.93008 C57.4585839,4.2440549 57.584616,4.60133133 57.6543369,5.00192 C57.7240578,5.40250867 57.7589178,5.80850461 57.7589178,6.21992 L57.7589178,11.5304 Z M62.2156719,11.6928 C61.3468418,11.6928 60.6871844,11.4113095 60.23668,10.84832 C59.7861755,10.2853305 59.5609266,9.45168552 59.5609266,8.34736 L59.5609266,3.02064 L61.7169015,3.02064 L61.7169015,7.8764 C61.7169015,9.18643322 62.1834885,9.84144 63.1166763,9.84144 C63.5350019,9.84144 63.9399135,9.71422794 64.3314233,9.4598 C64.7229332,9.20537206 65.0420357,8.8183226 65.2887405,8.29864 L65.2887405,3.02064 L67.4447154,3.02064 L67.4447154,9.02944 C67.4447154,9.25680114 67.4849385,9.41919951 67.5653857,9.51664 C67.6458329,9.61408049 67.7772281,9.66821328 67.9595751,9.67904 L67.9595751,11.5304 C67.7450492,11.5737069 67.5653864,11.6007733 67.4205814,11.6116 C67.2757764,11.6224267 67.1443812,11.62784 67.026392,11.62784 C66.6402453,11.62784 66.3265058,11.5385209 66.0851641,11.35988 C65.8438224,11.1812391 65.7017011,10.9349349 65.6587959,10.62096 L65.6105278,9.93888 C65.2351075,10.5235229 64.7524313,10.9619985 64.162485,11.25432 C63.5725387,11.5466415 62.9236074,11.6928 62.2156719,11.6928 L62.2156719,11.6928 Z" id="Menu" sketch:type="MSShapeGroup"></path>
            <g id="Group-2" sketch:type="MSShapeGroup">
                <path d="M0,4.59997559 L9.25527027,4.59997559 L20.8400002,4.59997559 L20.8400002,6.99997559 L0,6.99997559 L0,4.59997559 Z" id="Rectangle-2"></path>
                <rect id="Rectangle-2" x="0" y="9.12" width="20.8385014" height="2.4"></rect>
                <rect id="Rectangle-2" x="0" y="0" width="20.8385014" height="2.4"></rect>
            </g>
        </g>
    </g>
</svg>