<?xml version="1.0" encoding="UTF-8" standalone="no"?>
<svg width="37px" height="40px" viewBox="0 0 37 40" version="1.1" xmlns="http://www.w3.org/2000/svg" xmlns:xlink="http://www.w3.org/1999/xlink" xmlns:sketch="http://www.bohemiancoding.com/sketch/ns">
    <!-- Generator: Sketch 3.5.2 (25235) - http://www.bohemiancoding.com/sketch -->
    <title>Group</title>
    <desc>Created with Sketch.</desc>
    <defs></defs>
    <g id="Page-1" stroke="none" stroke-width="1" fill="none" fill-rule="evenodd" sketch:type="MSPage">
        <g id="Group" sketch:type="MSLayerGroup">
            <g id="Group-4" sketch:type="MSShapeGroup">
                <path d="M34.154539,5.90163934 L2.84627981,5.90163934 C2.07528159,5.90163934 1.40826578,6.18205769 0.844959468,6.74289438 C0.281653156,7.30373107 0,7.96809431 0,8.73544063 L0,37.0726383 C0,37.839713 0.281653156,38.5038045 0.844959468,39.0649129 C1.40826578,39.6257496 2.07528159,39.9061679 2.84627981,39.9061679 L34.1539931,39.9061679 C34.9247184,39.9061679 35.5922801,39.6257496 36.1550405,39.0649129 C36.7183468,38.5040762 37,37.839713 37,37.0726383 L37,8.73544063 C37,7.96782258 36.7186198,7.30373107 36.1555864,6.74289438 C35.5928259,6.18205769 34.9252643,5.90163934 34.154539,5.90163934 Z" id="Shape" fill="#C3C2C2"></path>
                <g id="handle2" transform="translate(23.575221, 0.000000)">
                    <rect id="Rectangle-6" fill="#C3C1C1" x="0" y="0" width="6.54867257" height="15.0819672" rx="6"></rect>
                    <rect id="Rectangle-6" fill="#E1E1E1" x="1.1460177" y="0.983606557" width="4.21392849" height="9.70491816" rx="4"></rect>
                </g>
                <g id="handle1" transform="translate(6.548673, 0.000000)">
                    <rect id="Rectangle-6" fill="#C3C1C1" x="0" y="0" width="6.54867257" height="15.0819672" rx="6"></rect>
                    <rect id="Rectangle-6" fill="#E1E1E1" x="1.1460177" y="0.983606557" width="4.21392849" height="9.70491816" rx="4"></rect>
                </g>
                <rect id="Rectangle-6" fill="#FFFFFF" x="3.27433628" y="11.7815061" width="31.1061947" height="25.5934418"></rect>
                <path d="M3.27433628,37.3048493 L3.27433628,11.7815061 L34.340561,11.7815061 L37,15.1569333 L36.9999994,35.0025185 C36.9999993,37.7625509 34.7672756,39.9999993 31.9905612,39.9999994 L5.60442305,40 L3.27433628,37.3048493 Z" id="Rectangle-5" fill-opacity="0.107223732" fill="#000000"></path>
            </g>
            <g id="weather-icons" transform="translate(3.274336, 11.803279)" sketch:type="MSShapeGroup">
                <g id="wind-page">
                    <rect id="Rectangle-6" fill="#FFFFFF" x="0" y="0" width="31.1061947" height="24.5901639"></rect>
                    <path d="M3.27433628,17.3373463 C3.27433628,17.5806877 3.36706558,17.7856037 3.55252696,17.9521004 C3.73798834,18.1378083 3.94582988,18.2306609 4.1760578,18.2306609 L10.1907322,18.2306609 C10.4593314,18.2306609 10.6943522,18.3267152 10.8958016,18.5188268 C11.0972511,18.7109385 11.1979743,18.9446708 11.1979743,19.2200307 C11.1979743,19.4825833 11.0956523,19.7147147 10.8910053,19.9164319 C10.6863582,20.1181491 10.4529362,20.2190061 10.1907322,20.2190061 C9.93492336,20.2190061 9.70469889,20.1165482 9.50005185,19.9116291 C9.30819525,19.7323249 9.09715616,19.6426742 8.86692824,19.6426742 C8.63030509,19.6426742 8.42885869,19.7291231 8.26258296,19.9020236 C8.09630724,20.074924 8.01317063,20.2830418 8.01317063,20.5263832 C8.01317063,20.7697246 8.09630724,20.9746406 8.26258296,21.1411373 C8.79338623,21.6726461 9.4360962,21.9383965 10.1907322,21.9383965 C10.9517633,21.9383965 11.5976709,21.674247 12.1284741,21.1459401 C12.6592774,20.6176331 12.9246751,19.9756698 12.9246751,19.2200307 C12.9246751,18.457988 12.6576786,17.8080201 12.1236778,17.2701076 C11.5896769,16.7321951 10.9453681,16.4632428 10.1907322,16.4632428 L4.1760578,16.4632428 C3.93303944,16.4632428 3.72200034,16.5496918 3.54293418,16.7225922 C3.36386802,16.8954927 3.27433628,17.1004087 3.27433628,17.3373463 L3.27433628,17.3373463 Z M3.27433628,14.2539703 C3.27433628,14.4845042 3.36706558,14.6830166 3.55252696,14.8495133 C3.70601224,15.0160101 3.91385378,15.0992572 4.1760578,15.0992572 L15.4187984,15.0992572 C16.1734344,15.0992572 16.8177431,14.8335068 17.351744,14.301998 C17.8857449,13.7704891 18.1527413,13.1269249 18.1527413,12.3712859 C18.1527413,11.6156468 17.8857449,10.9736835 17.351744,10.4453765 C16.8177431,9.91706959 16.1734344,9.65292008 15.4187984,9.65292008 C14.6385816,9.65292008 13.992674,9.90906506 13.4810564,10.4213627 C13.3275711,10.5942632 13.2508296,10.8087846 13.2508296,11.0649334 C13.2508296,11.3082748 13.3275711,11.508388 13.4810564,11.6652792 C13.6345417,11.8221704 13.8391857,11.9006148 14.0949945,11.9006148 C14.3508033,11.9006148 14.5586448,11.8237713 14.7185253,11.670082 C14.9103819,11.4779704 15.1438039,11.381916 15.4187984,11.381916 C15.6810024,11.381916 15.9112269,11.4779704 16.1094787,11.670082 C16.3077305,11.8621936 16.406855,12.0959259 16.406855,12.3712859 C16.406855,12.6466458 16.3077305,12.88358 16.1094787,13.0820953 C15.9112269,13.2806106 15.6810024,13.3798668 15.4187984,13.3798668 L4.1760578,13.3798668 C3.93303944,13.3798668 3.72200034,13.4663157 3.54293418,13.6392162 C3.36386802,13.8121166 3.27433628,14.0170326 3.27433628,14.2539703 L3.27433628,14.2539703 Z M5.98909361,11.8525871 C5.98909361,11.9358355 6.04664973,11.977459 6.16176369,11.977459 L7.62945935,11.977459 C7.71259721,11.977459 7.78614113,11.9294318 7.85009334,11.833376 C8.08032126,11.2762523 8.43684942,10.8151914 8.91968854,10.4501793 C9.40252765,10.0851672 9.94451442,9.88025125 10.5456651,9.8354252 L11.0828609,9.76818648 C11.2107653,9.76818648 11.2747165,9.70415023 11.2747165,9.57607582 L11.341866,9.06698258 C11.4505848,7.95913893 11.9206264,7.03221428 12.752005,6.28618084 C13.5833836,5.5401474 14.55864,5.16713627 15.6778035,5.16713627 C16.796967,5.16713627 17.7690259,5.53694558 18.5940093,6.27657531 C19.4189926,7.01620503 19.8922318,7.94633149 20.013741,9.06698258 L20.0808905,9.65292008 C20.0808905,9.77459077 20.1416442,9.8354252 20.2631533,9.8354252 L21.9322974,9.8354252 C22.8532091,9.8354252 23.6398094,10.1588082 24.2921218,10.805584 C24.9444343,11.4523598 25.2705856,12.2304002 25.2705856,13.1397285 C25.2705856,14.0554605 24.9444343,14.8383036 24.2921218,15.4882812 C23.6398094,16.1382589 22.8532091,16.4632428 21.9322974,16.4632428 L14.862417,16.4632428 C14.7473031,16.4632428 14.689747,16.5240773 14.689747,16.645748 L14.689747,18.0481557 C14.689747,18.1698264 14.7473031,18.2306609 14.862417,18.2306609 L21.9322974,18.2306609 C22.8468139,18.2306609 23.6925691,18.0033322 24.4695883,17.548668 C25.2466075,17.0940039 25.8605394,16.4760541 26.3114024,15.6948002 C26.7622655,14.9135463 26.9876936,14.0618642 26.9876936,13.1397285 C26.9876936,12.3776857 26.8438033,11.6860943 26.5560184,11.0649334 C27.3362352,10.0403381 27.7263378,8.90369477 27.7263378,7.65496926 C27.7263378,6.92494512 27.5840463,6.22855096 27.299459,5.56576588 C27.0148717,4.9029808 26.632763,4.33305823 26.1531215,3.85598105 C25.67348,3.37890386 25.1027152,2.99948911 24.4408099,2.71772541 C23.7789047,2.43596171 23.0866325,2.29508197 22.3639726,2.29508197 C20.7843533,2.29508197 19.4605626,2.88741723 18.3925608,4.07210553 C17.5931583,3.6558637 16.6882483,3.4477459 15.6778035,3.4477459 C14.2324838,3.4477459 12.9550577,3.89439871 11.8454871,4.78771773 C10.7359164,5.68103674 10.030854,6.82568462 9.73027862,8.2216957 C8.8605287,8.42661475 8.08991624,8.84605216 7.41841814,9.48002049 C6.74692004,10.1139888 6.28007598,10.8600111 6.01787196,11.7181096 L6.01787196,11.7565318 C5.9986863,11.8077615 5.98909361,11.8397796 5.98909361,11.8525871 L5.98909361,11.8525871 Z M19.8314782,5.06147541 C20.5669285,4.36346987 21.4110848,4.01447234 22.3639726,4.01447234 C23.3616269,4.01447234 24.2169748,4.37307531 24.9300418,5.09029201 C25.6431089,5.80750871 25.999637,6.66239258 25.999637,7.65496926 C25.999637,8.27613015 25.8269687,8.90688717 25.4816268,9.54725922 C24.5031581,8.56748998 23.3200602,8.0776127 21.9322974,8.0776127 L21.5965501,8.0776127 C21.3599269,6.98257649 20.7715755,5.97720745 19.8314782,5.06147541 L19.8314782,5.06147541 Z" id="wind" fill="#46D6DB"></path>
                </g>
                <g id="lightning">
                    <rect id="Rectangle-6" fill="#FFFFFF" x="0" y="0" width="31.1061947" height="24.5901639"></rect>
                    <path d="M4.63016183,13.186849 C4.63016183,14.5735746 5.10923942,15.764969 6.06740897,16.7610677 C7.02557852,17.7571664 8.19504402,18.2877601 9.57584054,18.3528646 C9.69198231,18.3528646 9.75005232,18.2942714 9.75005232,18.1770833 L9.75005232,16.7513021 C9.75005232,16.6276035 9.69198231,16.5657552 9.57584054,16.5657552 C8.67896803,16.4941403 7.92405789,16.1344433 7.31108747,15.4866536 C6.69811705,14.8388639 6.39163644,14.0722701 6.39163644,13.186849 C6.39163644,12.3144488 6.68359955,11.5543652 7.26753453,10.9065755 C7.85146951,10.2587858 8.57250547,9.8990889 9.43066406,9.82747396 L9.97265625,9.74934896 C10.108155,9.74934896 10.1759033,9.69075579 10.1759033,9.57356771 L10.2533308,9.03645833 C10.3630202,7.91015062 10.8340325,6.96777723 11.6663818,6.2093099 C12.4987311,5.45084256 13.4794691,5.07161458 14.6086251,5.07161458 C15.7313289,5.07161458 16.7120668,5.44921497 17.5508684,6.20442708 C18.3896701,6.95963919 18.8671346,7.90364017 18.9832764,9.03645833 L19.0607038,9.64192708 C19.0607038,9.76562562 19.1219999,9.82747396 19.244594,9.82747396 L20.9092843,9.82747396 C21.8448707,9.82747396 22.6433334,10.1562467 23.3046962,10.8138021 C23.966059,11.4713575 24.2967355,12.2623652 24.2967355,13.186849 C24.2967355,14.0722701 23.9902549,14.8388639 23.3772845,15.4866536 C22.764314,16.1344433 22.0094039,16.4941403 21.1125314,16.5657552 C20.9770327,16.5657552 20.9092843,16.6276035 20.9092843,16.7513021 L20.9092843,18.1770833 C20.9092843,18.2942714 20.9770327,18.3528646 21.1125314,18.3528646 C22.4868756,18.3072914 23.6498889,17.7832081 24.6016061,16.780599 C25.5533233,15.7779898 26.0291748,14.5800851 26.0291748,13.186849 C26.0291748,12.2558547 25.7936686,11.3964883 25.3226493,10.608724 C26.1485463,9.85351185 26.6808547,8.95833851 26.9195905,7.92317708 L27.0744455,7.17122396 C27.0808978,7.16471351 27.0841239,7.14192728 27.0841239,7.10286458 C27.0841239,7.02473919 27.02928,6.9694012 26.9195905,6.93684896 L26.3195278,6.76106771 C25.7323666,6.59179603 25.2323193,6.30534056 24.8193708,5.90169271 C24.4064223,5.49804486 24.1128462,5.06998924 23.9386335,4.61751302 C23.7644209,4.1650368 23.6773158,3.7076846 23.6773158,3.24544271 C23.6773158,2.99153519 23.709577,2.71810042 23.7741002,2.42513021 L23.9192766,1.78059896 C23.9515382,1.68294222 23.9031466,1.604818 23.7741002,1.54622396 L22.9611119,1.29231771 C22.5094495,1.18164007 22.0803766,1.12630208 21.6738804,1.12630208 C21.2996459,1.12630208 20.9157386,1.17187454 20.522147,1.26302083 C20.1285555,1.35416712 19.7188393,1.49576727 19.2929862,1.68782552 C18.8671331,1.87988377 18.4541908,2.15657371 18.0541469,2.51790365 C17.6541031,2.87923358 17.3089091,3.30403402 17.0185547,3.79231771 C16.2894425,3.47981615 15.4861407,3.32356771 14.6086251,3.32356771 C13.1504008,3.32356771 11.858343,3.77766473 10.7324132,4.6858724 C9.60648328,5.59408006 8.8822212,6.7578054 8.55960519,8.17708333 C7.42399683,8.4505222 6.48519833,9.05435731 5.7431815,9.98860677 C5.00116468,10.9228562 4.63016183,11.9889263 4.63016183,13.186849 L4.63016183,13.186849 Z M12.5471191,18.030599 C12.4955006,18.1803393 12.5438923,18.2552083 12.6922956,18.2552083 L14.918335,18.2552083 L13.5633545,22.5716146 L13.8730643,22.5716146 L18.1799665,16.7513021 C18.2186804,16.7057289 18.2283588,16.6585289 18.2090018,16.6097005 C18.1896449,16.5608722 18.1444793,16.5364583 18.0735038,16.5364583 L15.7990723,16.5364583 L18.1799665,12.1516927 C18.250942,12.0019524 18.2025504,11.9270833 18.03479,11.9270833 L14.9957624,11.9270833 C14.9118823,11.9270833 14.8376817,11.975911 14.7731585,12.0735677 L12.5471191,18.030599 Z M18.5380685,4.74934896 C18.8800415,4.15689808 19.3365363,3.70442865 19.9075666,3.39192708 C20.478597,3.07942552 21.0705885,2.92317708 21.6835589,2.92317708 C21.8126053,2.92317708 21.9061625,2.92968743 21.9642334,2.94270833 L21.9642334,3.26497396 C21.9642334,4.26758314 22.2320007,5.21483929 22.7675432,6.10677083 C23.3030858,6.99870238 24.0483176,7.67903411 25.003261,8.14778646 C24.841953,8.53190296 24.5838641,8.902993 24.2289865,9.26106771 C23.2804954,8.44075111 22.1739391,8.03059896 20.9092843,8.03059896 L20.5802176,8.03059896 C20.2898632,6.72850911 19.6091537,5.63477005 18.5380685,4.74934896 L18.5380685,4.74934896 Z" id="Type-something" fill="#DBADFF"></path>
                </g>
                <g id="sun-page">
                    <rect id="Rectangle-6" fill="#FFFFFF" x="0" y="0" width="31.1061947" height="24.5901639"></rect>
                    <path d="M4.5840708,12.1945441 C4.5840708,11.944799 4.67040497,11.7334793 4.84307591,11.5605789 C5.02214207,11.3940822 5.22678604,11.310835 5.45701397,11.310835 L7.54824046,11.310835 C7.7848636,11.310835 7.98151367,11.397284 8.13819656,11.5701844 C8.29487945,11.7430849 8.37321972,11.9512027 8.37321972,12.1945441 C8.37321972,12.4378854 8.29487945,12.6444023 8.13819656,12.8141009 C7.98151367,12.9837995 7.7848636,13.0686475 7.54824046,13.0686475 L5.45701397,13.0686475 C5.22039082,13.0686475 5.01574685,12.9821986 4.84307591,12.8092982 C4.67040497,12.6363977 4.5840708,12.4314817 4.5840708,12.1945441 L4.5840708,12.1945441 Z M7.50986933,19.2930328 C7.50986933,19.0560951 7.58980838,18.8479773 7.74968888,18.6686732 L9.25575567,17.2086322 C9.40924095,17.0485392 9.61068736,16.9684939 9.86010094,16.9684939 C10.1031193,16.9684939 10.3061645,17.0453373 10.4692426,17.1990266 C10.6323207,17.3527159 10.7138585,17.5480265 10.7138585,17.7849641 C10.7138585,18.0347092 10.6307219,18.2524325 10.4644462,18.4381404 L9.00634334,19.8981814 C8.59065403,20.2247711 8.1717734,20.2247711 7.74968888,19.8981814 C7.58980838,19.7252809 7.50986933,19.5235667 7.50986933,19.2930328 L7.50986933,19.2930328 Z M7.50986933,5.10566086 C7.50986933,4.8687232 7.58980838,4.6606054 7.74968888,4.48130123 C7.9479407,4.3148045 8.16537492,4.23155738 8.40199806,4.23155738 C8.62583077,4.23155738 8.82727717,4.3148045 9.00634334,4.48130123 L10.4644462,5.98936988 C10.6307219,6.14305917 10.7138585,6.34477334 10.7138585,6.59451844 C10.7138585,6.83785982 10.6323207,7.0411749 10.4692426,7.20446977 C10.3061645,7.36776465 10.1031193,7.44941086 9.86010094,7.44941086 C9.61068736,7.44941086 9.40924095,7.36616374 9.25575567,7.19966701 L7.74968888,5.73962602 C7.58980838,5.56672557 7.50986933,5.35540596 7.50986933,5.10566086 L7.50986933,5.10566086 Z M10.1191061,12.1945441 C10.1191061,11.2403897 10.3589232,10.3518868 10.8385647,9.52900871 C11.3182062,8.70613062 11.9689101,8.05456183 12.7906959,7.57428279 C13.6124816,7.09400375 14.4998051,6.85386783 15.4526929,6.85386783 C16.1689575,6.85386783 16.8564334,6.99634847 17.515141,7.28131404 C18.1738487,7.5662796 18.741416,7.94729526 19.2178599,8.42437244 C19.6943038,8.90144962 20.0732149,9.46977129 20.3546045,10.1293545 C20.6359942,10.7889377 20.7766869,11.4773274 20.7766869,12.1945441 C20.7766869,13.1551021 20.5384686,14.0452059 20.0620247,14.8648822 C19.5855808,15.6845584 18.9380745,16.3329254 18.1194863,16.8100026 C17.3008981,17.2870797 16.4119759,17.5256148 15.4526929,17.5256148 C14.4934099,17.5256148 13.6044876,17.2870797 12.7858995,16.8100026 C11.9673113,16.3329254 11.3182062,15.6845584 10.8385647,14.8648822 C10.3589232,14.0452059 10.1191061,13.1551021 10.1191061,12.1945441 L10.1191061,12.1945441 Z M11.8553996,12.1945441 C11.8553996,13.1935245 12.2055327,14.0468074 12.9058093,14.7544185 C13.6060858,15.4620297 14.4550386,15.8158299 15.4526929,15.8158299 C16.4503472,15.8158299 17.3024975,15.4620297 18.0091693,14.7544185 C18.7158411,14.0468074 19.0691717,13.1935245 19.0691717,12.1945441 C19.0691717,11.2083711 18.7158411,10.3662945 18.0091693,9.66828893 C17.3024975,8.9702834 16.4503472,8.62128586 15.4526929,8.62128586 C14.4614338,8.62128586 13.6140798,8.9702834 12.9106056,9.66828893 C12.2071314,10.3662945 11.8553996,11.2083711 11.8553996,12.1945441 L11.8553996,12.1945441 Z M14.5797497,20.1575307 C14.5797497,19.9141894 14.6644851,19.7092734 14.8339584,19.5427766 C15.0034318,19.3762799 15.2096745,19.2930328 15.4526929,19.2930328 C15.7021065,19.2930328 15.909948,19.3762799 16.0762237,19.5427766 C16.2424994,19.7092734 16.3256361,19.9141894 16.3256361,20.1575307 L16.3256361,22.1939037 C16.3256361,22.4436488 16.2409007,22.6549684 16.0714273,22.8278689 C15.901954,23.0007693 15.6957113,23.0872182 15.4526929,23.0872182 C15.2096745,23.0872182 15.0034318,23.0007693 14.8339584,22.8278689 C14.6644851,22.6549684 14.5797497,22.4436488 14.5797497,22.1939037 L14.5797497,20.1575307 Z M14.5797497,4.27958504 L14.5797497,2.18557889 C14.5797497,1.94864123 14.6660839,1.74372525 14.8387548,1.5708248 C15.0114258,1.39792434 15.2160698,1.31147541 15.4526929,1.31147541 C15.689316,1.31147541 15.89396,1.39792434 16.0666309,1.5708248 C16.2393019,1.74372525 16.3256361,1.94864123 16.3256361,2.18557889 L16.3256361,4.27958504 C16.3256361,4.5165227 16.2409007,4.71343415 16.0714273,4.87032531 C15.901954,5.02721646 15.6957113,5.10566086 15.4526929,5.10566086 C15.2096745,5.10566086 15.0034318,5.02721646 14.8339584,4.87032531 C14.6644851,4.71343415 14.5797497,4.5165227 14.5797497,4.27958504 L14.5797497,4.27958504 Z M20.2298984,17.7849641 C20.2298984,17.5480265 20.3066399,17.3559177 20.4601251,17.2086322 C20.6136104,17.0485392 20.8054641,16.9684939 21.0356921,16.9684939 C21.2851056,16.9684939 21.4897496,17.0485392 21.6496301,17.2086322 L23.1461041,18.6686732 C23.3123798,18.8479773 23.3955165,19.0560951 23.3955165,19.2930328 C23.3955165,19.5299704 23.3123798,19.7316846 23.1461041,19.8981814 C22.73681,20.2183674 22.3275221,20.2183674 21.918228,19.8981814 L20.4601251,18.4381404 C20.3066399,18.2652399 20.2298984,18.0475167 20.2298984,17.7849641 L20.2298984,17.7849641 Z M20.2298984,6.59451844 C20.2298984,6.33836962 20.3066399,6.13665545 20.4601251,5.98936988 L21.918228,4.48130123 C22.0972942,4.3148045 22.2987406,4.23155738 22.5225733,4.23155738 C22.7655916,4.23155738 22.9718344,4.31800631 23.1413077,4.49090676 C23.3107811,4.66380722 23.3955165,4.8687232 23.3955165,5.10566086 C23.3955165,5.36180968 23.3123798,5.57312929 23.1461041,5.73962602 L21.6496301,7.19966701 C21.4641687,7.36616374 21.2595248,7.44941086 21.0356921,7.44941086 C20.8054641,7.44941086 20.6136104,7.36776465 20.4601251,7.20446977 C20.3066399,7.0411749 20.2298984,6.83785982 20.2298984,6.59451844 L20.2298984,6.59451844 Z M22.5417588,12.1945441 C22.5417588,11.9512027 22.6248955,11.7398831 22.7911712,11.5605789 C22.9574469,11.3940822 23.1524982,11.310835 23.3763309,11.310835 L25.4483718,11.310835 C25.684995,11.310835 25.8912377,11.3988849 26.0671063,11.5749872 C26.2429748,11.7510895 26.3309078,11.9576064 26.3309078,12.1945441 C26.3309078,12.4314817 26.2429748,12.6363977 26.0671063,12.8092982 C25.8912377,12.9821986 25.684995,13.0686475 25.4483718,13.0686475 L23.3763309,13.0686475 C23.1397077,13.0686475 22.9414589,12.9837995 22.7815784,12.8141009 C22.6216979,12.6444023 22.5417588,12.4378854 22.5417588,12.1945441 L22.5417588,12.1945441 Z" id="sun" fill="#FF887C"></path>
                </g>
                <g id="snow-page">
                    <rect id="Rectangle-4" fill="#FFFFFF" x="0" y="0" width="31.1061947" height="24.5901639"></rect>
                    <path d="M4.5840708,12.1561219 C4.5840708,13.5201144 5.06050754,14.6935786 6.01339533,15.6765497 C6.96628311,16.6595208 8.12699814,17.1830171 9.49557522,17.2470543 C9.6170844,17.2470543 9.67783808,17.1894217 9.67783808,17.0741547 L9.67783808,15.7005635 C9.67783808,15.5852966 9.6170844,15.5276639 9.49557522,15.5276639 C8.61943008,15.4764342 7.87279934,15.1242348 7.25566061,14.4710553 C6.63852187,13.8178758 6.32995713,13.0462391 6.32995713,12.1561219 C6.32995713,11.3044271 6.6193365,10.5648085 7.19810391,9.93724385 C7.77687133,9.30967924 8.49472401,8.94467264 9.35168349,8.84221311 L9.88887929,8.80379098 C10.0231789,8.80379098 10.0903277,8.74295655 10.0903277,8.62128586 L10.16707,8.06416496 C10.2757887,6.95632131 10.7442315,6.02779575 11.5724125,5.27856045 C12.4005935,4.52932515 13.3742512,4.15471311 14.4934147,4.15471311 C15.606183,4.15471311 16.5814394,4.52932515 17.4192132,5.27856045 C18.256987,6.02779575 18.7334238,6.95632131 18.8485377,8.06416496 L18.92528,8.65010246 C18.92528,8.77817687 18.9828361,8.84221311 19.0979501,8.84221311 L20.7575014,8.84221311 C21.6848083,8.84221311 22.4778037,9.16719706 23.1365113,9.81717469 C23.795219,10.4671523 24.1245679,11.2467936 24.1245679,12.1561219 C24.1245679,13.0398354 23.8144044,13.8098712 23.194068,14.4662526 C22.5737317,15.1226339 21.8255022,15.4764342 20.949357,15.5276639 C20.8214526,15.5276639 20.7575014,15.5852966 20.7575014,15.7005635 L20.7575014,17.0741547 C20.7575014,17.1894217 20.8214526,17.2470543 20.949357,17.2470543 C22.3179341,17.2022283 23.4770504,16.6851356 24.4267405,15.6957608 C25.3764307,14.7063859 25.8512687,13.5265181 25.8512687,12.1561219 C25.8512687,11.4260978 25.7041808,10.74091 25.4100007,10.1005379 C26.2157984,9.11436495 26.6186912,7.98092341 26.6186912,6.7001793 C26.6186912,5.72681378 26.3772753,4.82550363 25.8944362,3.99622182 C25.4115971,3.16694001 24.7576956,2.51216941 23.9327123,2.03189037 C23.1077289,1.55161133 22.2124115,1.31147541 21.2467333,1.31147541 C19.6607187,1.31147541 18.3337305,1.90381067 17.2657287,3.08849898 C16.4407453,2.64664226 15.5166499,2.42571721 14.4934147,2.42571721 C13.048095,2.42571721 11.7658726,2.87557183 10.6467091,3.77529457 C9.52754557,4.67501731 8.8080941,5.822867 8.4883331,7.21887807 C7.35637916,7.48783434 6.42269104,8.08177051 5.68724074,9.00070441 C4.95179043,9.9196383 4.5840708,10.9714336 4.5840708,12.1561219 L4.5840708,12.1561219 Z M11.1167554,16.3729508 C11.1167554,16.597081 11.199892,16.7923916 11.3661677,16.9588883 C11.5388387,17.1317888 11.7370875,17.2182377 11.9609202,17.2182377 C12.1975434,17.2182377 12.397391,17.1381924 12.5604691,16.9780994 C12.7235472,16.8180064 12.805085,16.6162922 12.805085,16.3729508 C12.805085,16.1296094 12.725146,15.9278953 12.5652655,15.7678023 C12.405385,15.6077092 12.2039386,15.5276639 11.9609202,15.5276639 C11.7179019,15.5276639 11.5164554,15.6077092 11.3565749,15.7678023 C11.1966944,15.9278953 11.1167554,16.1296094 11.1167554,16.3729508 L11.1167554,16.3729508 Z M11.1167554,20.090292 C11.1167554,20.3336334 11.199892,20.5321457 11.3661677,20.685835 C11.5324434,20.8523318 11.7306923,20.9355789 11.9609202,20.9355789 C12.2039386,20.9355789 12.405385,20.8555336 12.5652655,20.6954406 C12.725146,20.5353476 12.805085,20.3336334 12.805085,20.090292 C12.805085,19.8469506 12.7235472,19.6404337 12.5604691,19.4707351 C12.397391,19.3010365 12.1975434,19.2161885 11.9609202,19.2161885 C11.7242971,19.2161885 11.5244494,19.3010365 11.3613713,19.4707351 C11.1982932,19.6404337 11.1167554,19.8469506 11.1167554,20.090292 L11.1167554,20.090292 Z M14.3878941,18.3132684 C14.3878941,18.5502061 14.4742283,18.7599248 14.6468992,18.9424308 C14.8195701,19.1249369 15.017819,19.2161885 15.2416517,19.2161885 C15.4782748,19.2161885 15.6829188,19.1265378 15.8555897,18.9472336 C16.0282607,18.7679294 16.1145949,18.5566098 16.1145949,18.3132684 C16.1145949,18.0891382 16.0282607,17.8922268 15.8555897,17.7225282 C15.6829188,17.5528296 15.4782748,17.4679816 15.2416517,17.4679816 C15.017819,17.4679816 14.8195701,17.5528296 14.6468992,17.7225282 C14.4742283,17.8922268 14.3878941,18.0891382 14.3878941,18.3132684 L14.3878941,18.3132684 Z M14.3878941,14.6343494 C14.3878941,14.8648833 14.4710307,15.0633957 14.6373064,15.2298924 C14.8035821,15.3963892 15.0050285,15.4796363 15.2416517,15.4796363 C15.48467,15.4796363 15.6909128,15.3979901 15.8603861,15.2346952 C16.0298595,15.0714003 16.1145949,14.871287 16.1145949,14.6343494 C16.1145949,14.3974117 16.0298595,14.1940966 15.8603861,14.0243981 C15.6909128,13.8546995 15.48467,13.7698514 15.2416517,13.7698514 C15.0114238,13.7698514 14.8115761,13.8546995 14.6421028,14.0243981 C14.4726295,14.1940966 14.3878941,14.3974117 14.3878941,14.6343494 L14.3878941,14.6343494 Z M14.3878941,22.0786373 C14.3878941,22.315575 14.4726295,22.5204909 14.6421028,22.6933914 C14.8115761,22.8662918 15.0114238,22.9527408 15.2416517,22.9527408 C15.4782748,22.9527408 15.6829188,22.8678928 15.8555897,22.6981942 C16.0282607,22.5284956 16.1145949,22.3219787 16.1145949,22.0786373 C16.1145949,21.8545071 16.0282607,21.6575956 15.8555897,21.487897 C15.6829188,21.3181984 15.4782748,21.2333504 15.2416517,21.2333504 C15.017819,21.2333504 14.8195701,21.3181984 14.6468992,21.487897 C14.4742283,21.6575956 14.3878941,21.8545071 14.3878941,22.0786373 L14.3878941,22.0786373 Z M17.6974039,16.3729508 C17.6974039,16.5842736 17.7805405,16.7795841 17.9468162,16.9588883 C18.1194872,17.1317888 18.3241311,17.2182377 18.5607543,17.2182377 C18.7973774,17.2182377 18.9972251,17.1381924 19.1603032,16.9780994 C19.3233813,16.8180064 19.4049191,16.6162922 19.4049191,16.3729508 C19.4049191,16.1296094 19.3249801,15.9278953 19.1650996,15.7678023 C19.0052191,15.6077092 18.8037726,15.5276639 18.5607543,15.5276639 C18.3177359,15.5276639 18.113092,15.6077092 17.9468162,15.7678023 C17.7805405,15.9278953 17.6974039,16.1296094 17.6974039,16.3729508 L17.6974039,16.3729508 Z M17.6974039,20.090292 C17.6974039,20.3208259 17.7805405,20.5193383 17.9468162,20.685835 C18.113092,20.8523318 18.3177359,20.9355789 18.5607543,20.9355789 C18.8037726,20.9355789 19.0052191,20.8555336 19.1650996,20.6954406 C19.3249801,20.5353476 19.4049191,20.3336334 19.4049191,20.090292 C19.4049191,19.8469506 19.3233813,19.6404337 19.1603032,19.4707351 C18.9972251,19.3010365 18.7973774,19.2161885 18.5607543,19.2161885 C18.3241311,19.2161885 18.121086,19.3010365 17.9516126,19.4707351 C17.7821393,19.6404337 17.6974039,19.8469506 17.6974039,20.090292 L17.6974039,20.090292 Z M18.704646,4.08747439 C19.3953298,3.39587257 20.2426837,3.05007684 21.2467333,3.05007684 C22.2507828,3.05007684 23.1029331,3.405478 23.8032097,4.11629098 C24.5034863,4.82710396 24.8536193,5.68839146 24.8536193,6.7001793 C24.8536193,7.30212903 24.680951,7.92968423 24.3356091,8.58286373 C23.3507452,7.59669077 22.1580546,7.10361168 20.7575014,7.10361168 L20.4409396,7.10361168 C20.1403642,5.91251966 19.5616055,4.90715061 18.704646,4.08747439 L18.704646,4.08747439 Z" id="sn" fill="#5484ED"></path>
                </g>
            </g>
        </g>
    </g>
</svg>