<?xml version="1.0" encoding="UTF-8" standalone="no"?>
<svg width="101px" height="112px" viewBox="0 0 101 112" version="1.1" xmlns="http://www.w3.org/2000/svg" xmlns:xlink="http://www.w3.org/1999/xlink" xmlns:sketch="http://www.bohemiancoding.com/sketch/ns">
    <!-- Generator: Sketch 3.5.2 (25235) - http://www.bohemiancoding.com/sketch -->
    <title>Group</title>
    <desc>Created with Sketch.</desc>
    <defs></defs>
    <g id="Page-1" stroke="none" stroke-width="1" fill="none" fill-rule="evenodd" sketch:type="MSPage">
        <g id="Group" sketch:type="MSLayerGroup">
            <g id="Group-4" transform="translate(0.000000, 18.000000)" sketch:type="MSShapeGroup">
                <path d="M93.2326604,0.473067916 L7.76957461,0.473067916 C5.66495784,0.473067916 3.84418497,1.24221538 2.30651098,2.78051031 C0.768836993,4.31880523 0,6.14105867 0,8.24578002 L0,85.9706652 C0,88.0746412 0.768836993,89.8961494 2.30651098,91.4351896 C3.84418497,92.9734845 5.66495784,93.742632 7.76957461,93.742632 L93.2311704,93.742632 C95.3350422,93.742632 97.157305,92.9734845 98.693489,91.4351896 C100.231163,89.8968947 101,88.0746412 101,85.9706652 L101,8.24578002 C101,6.14031337 100.231908,4.31880523 98.694979,2.78051031 C97.158795,1.24221538 95.3365321,0.473067916 93.2326604,0.473067916 Z" id="Shape" fill="#C3C2C2"></path>
                <rect id="Rectangle-6" fill="#FFFFFF" x="8.9380531" y="16.6007026" width="84.9115044" height="70.1991547"></rect>
                <path d="M8.9380531,86.6075866 L8.9380531,16.6007026 L93.7404504,16.6007026 L101,25.859017 L100.999998,85.0041338 C100.999998,89.9724124 96.9670986,93.9999981 91.9904228,93.9999983 L15.2985602,94 L8.9380531,86.6075866 Z" id="Rectangle-5" fill-opacity="0.180168705" fill="#000000"></path>
            </g>
            <g id="weather-icons" transform="translate(8.938053, 34.660422)" sketch:type="MSShapeGroup">
                <g id="wind-page">
                    <rect id="Rectangle-6" fill="#FFFFFF" x="0" y="0" width="84.9115044" height="67.4473068"></rect>
                    <path d="M8.9380531,47.5538642 C8.9380531,48.2213148 9.19117902,48.7833701 9.69743847,49.2400468 C10.2036979,49.7494171 10.7710491,50.0040984 11.3995091,50.0040984 L27.8179446,50.0040984 C28.5511479,50.0040984 29.1926912,50.2675618 29.7425937,50.7944965 C30.2924962,51.3214312 30.5674433,51.9625255 30.5674433,52.7177986 C30.5674433,53.4379427 30.2881319,54.0746459 29.7295008,54.6279274 C29.1708697,55.1812089 28.5336907,55.4578454 27.8179446,55.4578454 C27.1196557,55.4578454 26.4912051,55.1768178 25.932574,54.6147541 C25.4088573,54.1229484 24.8327776,53.8770492 24.2043176,53.8770492 C23.5584004,53.8770492 23.0085061,54.1141662 22.5546184,54.5884075 C22.1007306,55.0626487 21.8737901,55.6334861 21.8737901,56.3009368 C21.8737901,56.9683874 22.1007306,57.5304427 22.5546184,57.9871194 C24.0035678,59.4449722 25.7579923,60.1738876 27.8179446,60.1738876 C29.895354,60.1738876 31.658507,59.4493632 33.1074564,58.0002927 C34.5564059,56.5512223 35.2808697,54.7904085 35.2808697,52.7177986 C35.2808697,50.6276242 34.5520416,48.8448552 33.0943636,47.3694379 C31.6366855,45.8940207 29.8778968,45.1563232 27.8179446,45.1563232 L11.3995091,45.1563232 C10.7361347,45.1563232 10.160055,45.3934403 9.67125277,45.8676815 C9.18245054,46.3419227 8.9380531,46.903978 8.9380531,47.5538642 L8.9380531,47.5538642 Z M8.9380531,39.0966042 C8.9380531,39.7289259 9.19117902,40.2734169 9.69743847,40.7300937 C10.1164118,41.1867704 10.683763,41.4151054 11.3995091,41.4151054 L42.0891524,41.4151054 C44.1491046,41.4151054 45.9078934,40.68619 47.3655714,39.2283372 C48.8232495,37.7704845 49.5520776,36.0052797 49.5520776,33.9326698 C49.5520776,31.8600599 48.8232495,30.0992461 47.3655714,28.6501756 C45.9078934,27.2011052 44.1491046,26.4765808 42.0891524,26.4765808 C39.9593713,26.4765808 38.1962183,27.1791499 36.7996405,28.5843091 C36.3806672,29.0585504 36.1711836,29.646952 36.1711836,30.3495316 C36.1711836,31.0169823 36.3806672,31.5658644 36.7996405,31.9961944 C37.2186138,32.4265244 37.7772366,32.6416862 38.4755254,32.6416862 C39.1738143,32.6416862 39.7411655,32.4309155 40.1775961,32.0093677 C40.7013128,31.482433 41.3384918,31.2189696 42.0891524,31.2189696 C42.8048985,31.2189696 43.4333491,31.482433 43.974523,32.0093677 C44.5156968,32.5363024 44.7862797,33.1773967 44.7862797,33.9326698 C44.7862797,34.6879429 44.5156968,35.3378193 43.974523,35.8823185 C43.4333491,36.4268177 42.8048985,36.6990632 42.0891524,36.6990632 L11.3995091,36.6990632 C10.7361347,36.6990632 10.160055,36.9361803 9.67125277,37.4104215 C9.18245054,37.8846628 8.9380531,38.4467181 8.9380531,39.0966042 L8.9380531,39.0966042 Z M16.3486069,32.5099532 C16.3486069,32.7382915 16.5057195,32.852459 16.8199495,32.852459 L20.826362,32.852459 C21.0533059,32.852459 21.2540609,32.7207273 21.4286332,32.45726 C22.0570932,30.9291493 23.0303187,29.6645249 24.348339,28.6633489 C25.6663593,27.662173 27.1458367,27.1001177 28.7868155,26.9771663 L30.2532149,26.79274 C30.6023593,26.79274 30.7769289,26.6170978 30.7769289,26.265808 L30.9602288,24.8694379 C31.2570016,21.8307811 32.5400882,19.2883592 34.8095271,17.242096 C37.078966,15.1958329 39.7411525,14.1727166 42.7961663,14.1727166 C45.8511802,14.1727166 48.5046382,15.1870507 50.7566199,17.2157494 C53.0086016,19.2444481 54.3004166,21.7956521 54.6321038,24.8694379 L54.8154038,26.4765808 C54.8154038,26.8103061 54.9812449,26.9771663 55.3129321,26.9771663 L59.8692443,26.9771663 C62.3830843,26.9771663 64.5302905,27.8641597 66.3109271,29.6381733 C68.0915638,31.4121869 68.9818688,33.5462405 68.9818688,36.0403981 C68.9818688,38.5521203 68.0915638,40.6993471 66.3109271,42.4821429 C64.5302905,44.2649387 62.3830843,45.1563232 59.8692443,45.1563232 L40.5703816,45.1563232 C40.2561516,45.1563232 40.099039,45.3231833 40.099039,45.6569087 L40.099039,49.5035129 C40.099039,49.8372382 40.2561516,50.0040984 40.5703816,50.0040984 L59.8692443,50.0040984 C62.3656271,50.0040984 64.6743101,49.3805683 66.7953626,48.1334895 C68.9164151,46.8864106 70.5922833,45.1914627 71.8230175,43.0485948 C73.0537517,40.905727 73.6691095,38.5696848 73.6691095,36.0403981 C73.6691095,33.9502237 73.2763279,32.0532872 72.4907529,30.3495316 C74.620534,27.5392131 75.6854086,24.4215628 75.6854086,20.9964871 C75.6854086,18.9941352 75.2969912,17.0840255 74.5201448,15.2661007 C73.7432985,13.4481759 72.7002451,11.8849597 71.3909534,10.5764052 C70.0816617,9.2678506 68.523628,8.22717014 66.7168055,7.45433255 C64.909983,6.68149496 63.0202671,6.29508197 61.0476009,6.29508197 C56.735667,6.29508197 53.1220762,7.91977298 50.2067201,11.1692037 C48.0245674,10.0275119 45.5544075,9.45667447 42.7961663,9.45667447 C38.8508341,9.45667447 35.3638063,10.6817793 32.3349782,13.1320258 C29.3061502,15.5822722 27.3815203,18.7218778 26.5610308,22.5509368 C24.1868486,23.1130005 22.0832849,24.2634573 20.2502765,26.0023419 C18.4172682,27.7412265 17.1429101,29.787459 16.427164,32.1411007 L16.427164,32.2464871 C16.3747923,32.387003 16.3486069,32.4748242 16.3486069,32.5099532 L16.3486069,32.5099532 Z M54.1345755,13.882904 C56.1421561,11.9683745 58.4464748,11.0111241 61.0476009,11.0111241 C63.7709276,11.0111241 66.1057961,11.9947208 68.0522763,13.9619438 C69.9987566,15.9291667 70.9719822,18.2739911 70.9719822,20.9964871 C70.9719822,22.7002427 70.5006442,24.4303191 69.5579542,26.1867681 C66.8869992,23.4994011 63.6574616,22.1557377 59.8692443,22.1557377 L58.9527447,22.1557377 C58.3068275,19.1522098 56.7007872,16.3946261 54.1345755,13.882904 L54.1345755,13.882904 Z" id="wind" fill="#46D6DB"></path>
                </g>
                <g id="lightning">
                    <rect id="Rectangle-6" fill="#FFFFFF" x="0" y="0" width="84.9115044" height="67.4473068"></rect>
                    <path d="M12.6390904,36.1696429 C12.6390904,39.9732333 13.9468427,43.2410578 16.5623866,45.9732143 C19.1779306,48.7053708 22.3702553,50.1607134 26.1394566,50.3392857 C26.4564922,50.3392857 26.6150077,50.178573 26.6150077,49.8571429 L26.6150077,45.9464286 C26.6150077,45.6071412 26.4564922,45.4375 26.1394566,45.4375 C23.6912371,45.2410704 21.6305364,44.2544732 19.9572928,42.4776786 C18.2840493,40.700884 17.44744,38.5982264 17.44744,36.1696429 C17.44744,33.7767738 18.2444204,31.6919732 19.8384051,29.9151786 C21.4323897,28.138384 23.4006231,27.1517867 25.7431641,26.9553571 L27.2226562,26.7410714 C27.5925311,26.7410714 27.7774658,26.5803588 27.7774658,26.2589286 L27.9888218,24.7857143 C28.2882444,21.6964131 29.5739807,19.1116175 31.8460693,17.03125 C34.118158,14.9508825 36.7953076,13.9107143 39.8775984,13.9107143 C42.9422761,13.9107143 45.6194256,14.9464182 47.9091274,17.0178571 C50.1988291,19.0892961 51.5021782,21.6785559 51.8192139,24.7857143 L52.0305699,26.4464286 C52.0305699,26.785716 52.1978917,26.9553571 52.5325405,26.9553571 L57.076695,26.9553571 C59.6305931,26.9553571 61.8101804,27.8571338 63.6155221,29.6607143 C65.4208639,31.4642947 66.3235212,33.6339159 66.3235212,36.1696429 C66.3235212,38.5982264 65.486912,40.700884 63.8136684,42.4776786 C62.1404248,44.2544732 60.0797242,45.2410704 57.6315046,45.4375 C57.2616297,45.4375 57.076695,45.6071412 57.076695,45.9464286 L57.076695,49.8571429 C57.076695,50.178573 57.2616297,50.3392857 57.6315046,50.3392857 C61.3830928,50.2142851 64.5578047,48.7767995 67.1557356,46.0267857 C69.7536664,43.276772 71.0526123,39.9910905 71.0526123,36.1696429 C71.0526123,33.6160587 70.4097442,31.2589394 69.1239886,29.0982143 C71.3784641,27.0267754 72.8315223,24.5714428 73.4832066,21.7321429 L73.9059187,19.6696429 C73.9235318,19.6517856 73.9323382,19.5892863 73.9323382,19.4821429 C73.9323382,19.2678561 73.7826291,19.1160719 73.4832066,19.0267857 L71.8451974,18.5446429 C70.2424062,18.0803548 68.8774122,17.2946484 67.7501744,16.1875 C66.6229366,15.0803516 65.821553,13.9062562 65.3459996,12.6651786 C64.8704461,11.4241009 64.632673,10.1696492 64.632673,8.90178571 C64.632673,8.20535366 64.7207371,7.45536116 64.896868,6.65178571 L65.2931606,4.88392857 C65.381226,4.61607009 65.2491298,4.40178652 64.896868,4.24107143 L62.6776297,3.54464286 C61.4447134,3.24106991 60.2734605,3.08928571 59.1638358,3.08928571 C58.1422766,3.08928571 57.0943134,3.21428446 56.0199149,3.46428571 C54.9455164,3.71428696 53.8271019,4.10267594 52.664638,4.62946429 C51.502174,5.15625263 50.3749531,5.91517362 49.2829415,6.90625 C48.1909299,7.89732638 47.2486438,9.0624933 46.4560547,10.4017857 C44.4657755,9.54463857 42.2729786,9.11607143 39.8775984,9.11607143 C35.8970399,9.11607143 32.3700715,10.3615947 29.2965873,12.8526786 C26.223103,15.3437625 24.2460633,18.5356948 23.3654088,22.4285714 C20.2655049,23.1785752 17.7028387,24.8348086 15.6773333,27.3973214 C13.6518279,29.9598342 12.6390904,32.8839121 12.6390904,36.1696429 L12.6390904,36.1696429 Z M34.2502441,49.4553571 C34.1093394,49.8660735 34.2414356,50.0714286 34.6465367,50.0714286 L40.7230225,50.0714286 L37.024292,61.9107143 L37.8697161,61.9107143 L49.6263951,45.9464286 C49.7320736,45.8214279 49.7584929,45.691965 49.7056536,45.5580357 C49.6528143,45.4241065 49.5295245,45.3571429 49.3357806,45.3571429 L43.1271973,45.3571429 L49.6263951,33.3303571 C49.8201391,32.9196408 49.6880429,32.7142857 49.2301025,32.7142857 L40.9343785,32.7142857 C40.7054083,32.7142857 40.5028608,32.8482129 40.3267299,33.1160714 L34.2502441,49.4553571 Z M50.6039167,13.0267857 C51.5374105,11.4017776 52.7835179,10.1607186 54.3422764,9.30357143 C55.9010349,8.44642429 57.5170117,8.01785714 59.1902553,8.01785714 C59.5425171,8.01785714 59.7979031,8.03571411 59.9564209,8.07142857 L59.9564209,8.95535714 C59.9564209,11.7053709 60.6873532,14.3035592 62.1492397,16.75 C63.6111262,19.1964408 65.6454076,21.0624936 68.2521449,22.3482143 C67.8118177,23.401791 67.1073046,24.4196379 66.1385847,25.4017857 C63.5494604,23.1517745 60.5288607,22.0267857 57.076695,22.0267857 L56.1784319,22.0267857 C55.3858429,18.4553393 53.5276897,15.4553693 50.6039167,13.0267857 L50.6039167,13.0267857 Z" id="Type-something" fill="#DBADFF"></path>
                </g>
                <g id="sun-page">
                    <rect id="Rectangle-6" fill="#FFFFFF" x="0" y="0" width="84.9115044" height="67.4473068"></rect>
                    <path d="M12.5132743,33.4478923 C12.5132743,32.7628771 12.7489433,32.1832576 13.2202883,31.7090164 C13.7090905,31.2523396 14.2677133,31.0240047 14.8961733,31.0240047 L20.6046564,31.0240047 C21.2505736,31.0240047 21.7873751,31.2611218 22.2150771,31.735363 C22.642779,32.2096042 22.8566268,32.7804416 22.8566268,33.4478923 C22.8566268,34.1153429 22.642779,34.6817892 22.2150771,35.1472482 C21.7873751,35.6127072 21.2505736,35.8454333 20.6046564,35.8454333 L14.8961733,35.8454333 C14.250256,35.8454333 13.6916333,35.6083162 13.2202883,35.1340749 C12.7489433,34.6598337 12.5132743,34.0977784 12.5132743,33.4478923 L12.5132743,33.4478923 Z M20.4999136,52.9180328 C20.4999136,52.2681466 20.7181256,51.6973093 21.1545561,51.2055035 L25.2657114,47.2008197 C25.6846848,46.7617074 26.234579,46.5421546 26.9154107,46.5421546 C27.5787851,46.5421546 28.1330436,46.7529253 28.5782028,47.1744731 C29.0233619,47.5960208 29.2459382,48.1317298 29.2459382,48.7816159 C29.2459382,49.4666311 29.0189977,50.0638148 28.5651099,50.573185 L24.5848832,54.5778689 C23.4501637,55.4736579 22.3067328,55.4736579 21.1545561,54.5778689 C20.7181256,54.1036276 20.4999136,53.5503544 20.4999136,52.9180328 L20.4999136,52.9180328 Z M20.4999136,14.0040984 C20.4999136,13.3542122 20.7181256,12.7833748 21.1545561,12.2915691 C21.69573,11.8348923 22.2892667,11.6065574 22.9351839,11.6065574 C23.5461867,11.6065574 24.0960809,11.8348923 24.5848832,12.2915691 L28.5651099,16.4279859 C29.0189977,16.8495337 29.2459382,17.4028069 29.2459382,18.087822 C29.2459382,18.7552727 29.0233619,19.3129369 28.5782028,19.7608314 C28.1330436,20.2087259 27.5787851,20.4326698 26.9154107,20.4326698 C26.234579,20.4326698 25.6846848,20.2043348 25.2657114,19.7476581 L21.1545561,15.7429742 C20.7181256,15.268733 20.4999136,14.6891135 20.4999136,14.0040984 L20.4999136,14.0040984 Z M27.6224246,33.4478923 C27.6224246,30.8307832 28.2770607,28.3937466 29.5863523,26.1367096 C30.895644,23.8796726 32.6718897,22.0925124 34.9151428,20.7751756 C37.1583958,19.4578388 39.5805491,18.7991803 42.1816752,18.7991803 C44.1368841,18.7991803 46.0135073,19.1899844 47.8116012,19.9716042 C49.6096951,20.753224 51.1590003,21.7982956 52.4595634,23.1068501 C53.7601265,24.4154047 54.7944514,25.9742298 55.5625691,27.7833724 C56.3306869,29.5925149 56.71474,31.4806693 56.71474,33.4478923 C56.71474,36.0825659 56.0644683,38.5239934 54.7639052,40.7722482 C53.4633422,43.020503 51.6958249,44.798881 49.4613005,46.1074356 C47.226776,47.4159901 44.8002585,48.0702576 42.1816752,48.0702576 C39.5630919,48.0702576 37.1365744,47.4159901 34.9020499,46.1074356 C32.6675255,44.798881 30.895644,43.020503 29.5863523,40.7722482 C28.2770607,38.5239934 27.6224246,36.0825659 27.6224246,33.4478923 L27.6224246,33.4478923 Z M32.3620368,33.4478923 C32.3620368,36.1879528 33.3178054,38.5283861 35.2293712,40.4692623 C37.140937,42.4101385 39.4583485,43.3805621 42.1816752,43.3805621 C44.9050019,43.3805621 47.2311418,42.4101385 49.1601649,40.4692623 C51.0891879,38.5283861 52.053685,36.1879528 52.053685,33.4478923 C52.053685,30.7429607 51.0891879,28.4332648 49.1601649,26.5187354 C47.2311418,24.6042059 44.9050019,23.6469555 42.1816752,23.6469555 C39.4758057,23.6469555 37.1627585,24.6042059 35.242464,26.5187354 C33.3221696,28.4332648 32.3620368,30.7429607 32.3620368,33.4478923 L32.3620368,33.4478923 Z M39.7987763,55.2892272 C39.7987763,54.6217765 40.030081,54.0597213 40.4926974,53.6030445 C40.9553138,53.1463677 41.5183007,52.9180328 42.1816752,52.9180328 C42.8625069,52.9180328 43.4298581,53.1463677 43.8837459,53.6030445 C44.3376336,54.0597213 44.5645741,54.6217765 44.5645741,55.2892272 L44.5645741,60.8747073 C44.5645741,61.5597224 44.3332694,62.1393419 43.870653,62.6135831 C43.4080366,63.0878244 42.8450496,63.3249415 42.1816752,63.3249415 C41.5183007,63.3249415 40.9553138,63.0878244 40.4926974,62.6135831 C40.030081,62.1393419 39.7987763,61.5597224 39.7987763,60.8747073 L39.7987763,55.2892272 Z M39.7987763,11.7382904 L39.7987763,5.99473068 C39.7987763,5.34484453 40.0344452,4.78278926 40.5057902,4.30854801 C40.9771352,3.83430676 41.535758,3.5971897 42.1816752,3.5971897 C42.8275924,3.5971897 43.3862151,3.83430676 43.8575601,4.30854801 C44.3289051,4.78278926 44.5645741,5.34484453 44.5645741,5.99473068 L44.5645741,11.7382904 C44.5645741,12.3881766 44.3332694,12.9282765 43.870653,13.3586066 C43.4080366,13.7889366 42.8450496,14.0040984 42.1816752,14.0040984 C41.5183007,14.0040984 40.9553138,13.7889366 40.4926974,13.3586066 C40.030081,12.9282765 39.7987763,12.3881766 39.7987763,11.7382904 L39.7987763,11.7382904 Z M55.222155,48.7816159 C55.222155,48.1317298 55.4316385,47.604803 55.8506119,47.2008197 C56.2695852,46.7617074 56.793294,46.5421546 57.421754,46.5421546 C58.1025857,46.5421546 58.6612084,46.7617074 59.097639,47.2008197 L63.1826085,51.2055035 C63.6364963,51.6973093 63.8634368,52.2681466 63.8634368,52.9180328 C63.8634368,53.5679189 63.6364963,54.1211921 63.1826085,54.5778689 C62.0653463,55.4560934 60.9481009,55.4560934 59.8308386,54.5778689 L55.8506119,50.573185 C55.4316385,50.0989438 55.222155,49.50176 55.222155,48.7816159 L55.222155,48.7816159 Z M55.222155,18.087822 C55.222155,17.3852424 55.4316385,16.8319692 55.8506119,16.4279859 L59.8308386,12.2915691 C60.3196409,11.8348923 60.8695351,11.6065574 61.4805379,11.6065574 C62.1439123,11.6065574 62.7068993,11.8436744 63.1695157,12.3179157 C63.6321321,12.7921569 63.8634368,13.3542122 63.8634368,14.0040984 C63.8634368,14.706678 63.6364963,15.2862975 63.1826085,15.7429742 L59.097639,19.7476581 C58.5913795,20.2043348 58.0327568,20.4326698 57.421754,20.4326698 C56.793294,20.4326698 56.2695852,20.2087259 55.8506119,19.7608314 C55.4316385,19.3129369 55.222155,18.7552727 55.222155,18.087822 L55.222155,18.087822 Z M61.5329093,33.4478923 C61.5329093,32.7804416 61.7598498,32.2008221 62.2137376,31.7090164 C62.6676253,31.2523396 63.2000626,31.0240047 63.8110654,31.0240047 L69.4671771,31.0240047 C70.1130944,31.0240047 70.6760813,31.2655128 71.1561549,31.7485363 C71.6362285,32.2315598 71.8762618,32.7980061 71.8762618,33.4478923 C71.8762618,34.0977784 71.6362285,34.6598337 71.1561549,35.1340749 C70.6760813,35.6083162 70.1130944,35.8454333 69.4671771,35.8454333 L63.8110654,35.8454333 C63.1651482,35.8454333 62.6239824,35.6127072 62.1875519,35.1472482 C61.7511213,34.6817892 61.5329093,34.1153429 61.5329093,33.4478923 L61.5329093,33.4478923 Z" id="sun" fill="#FF887C"></path>
                </g>
                <g id="snow-page">
                    <rect id="Rectangle-4" fill="#FFFFFF" x="0" y="0" width="84.9115044" height="67.4473068"></rect>
                    <path d="M12.5132743,33.3425059 C12.5132743,37.0837424 13.8138179,40.302387 16.414944,42.9985363 C19.0160701,45.6946856 22.1845084,47.1305612 25.920354,47.3062061 C26.2520412,47.3062061 26.4178823,47.148128 26.4178823,46.8319672 L26.4178823,43.0644028 C26.4178823,42.748242 26.2520412,42.5901639 25.920354,42.5901639 C23.5287145,42.449648 21.4906144,41.4836155 19.8059925,39.6920375 C18.1213705,37.9004594 17.2790722,35.7839701 17.2790722,33.3425059 C17.2790722,31.0064286 18.0689996,28.9777604 19.6488782,27.2564403 C21.2287569,25.5351202 23.1883007,24.5339593 25.5275684,24.2529274 L26.9939678,24.147541 C27.3605694,24.147541 27.5438675,23.9806808 27.5438675,23.6469555 L27.7533532,22.1188525 C28.0501259,19.0801956 29.3288483,16.5333826 31.5895586,14.4783372 C33.8502688,12.4232918 36.5080911,11.3957845 39.563105,11.3957845 C42.6006616,11.3957845 45.2628481,12.4232918 47.5497442,14.4783372 C49.8366403,16.5333826 51.1371839,19.0801956 51.4514139,22.1188525 L51.6608995,23.7259953 C51.6608995,24.0772851 51.8180121,24.2529274 52.1322421,24.2529274 L56.6623686,24.2529274 C59.1936659,24.2529274 61.358329,25.1443119 63.1564228,26.9271077 C64.9545167,28.7099035 65.8535502,30.8483482 65.8535502,33.3425059 C65.8535502,35.7664056 65.0068876,37.8785039 63.3135371,39.6788642 C61.6201865,41.4792245 59.5777221,42.449648 57.1860827,42.5901639 C56.8369382,42.5901639 56.6623686,42.748242 56.6623686,43.0644028 L56.6623686,46.8319672 C56.6623686,47.148128 56.8369382,47.3062061 57.1860827,47.3062061 C60.9219282,47.1832547 64.0860023,45.7649433 66.6783998,43.0512295 C69.2707973,40.3375157 70.5669766,37.1013069 70.5669766,33.3425059 C70.5669766,31.3401539 70.1654665,29.4607816 69.3624343,27.7043326 C71.5620443,24.999401 72.6618328,21.8905328 72.6618328,18.3776347 C72.6618328,15.7078321 72.0028326,13.2356671 70.6848123,10.9610656 C69.366792,8.68646404 67.5818178,6.89052181 65.3298361,5.57318501 C63.0778545,4.25584821 60.63388,3.5971897 57.9978395,3.5971897 C53.6684483,3.5971897 50.0461291,5.22188071 47.130773,8.47131148 C44.8787913,7.25936162 42.3562605,6.65339578 39.563105,6.65339578 C35.6177727,6.65339578 32.1176522,7.88728274 29.0626383,10.3550937 C26.0076244,12.8229046 24.0437163,15.9712923 23.1708552,19.8003513 C20.0809269,20.5380599 17.5322107,22.167142 15.5246301,24.6876464 C13.5170496,27.2081508 12.5132743,30.0930751 12.5132743,33.3425059 L12.5132743,33.3425059 Z M30.3457377,44.9086651 C30.3457377,45.5234223 30.5726782,46.0591312 31.026566,46.515808 C31.497911,46.9900492 32.0390767,47.2271663 32.6500795,47.2271663 C33.2959967,47.2271663 33.8415267,47.0076134 34.2866859,46.5685012 C34.7318451,46.1293889 34.9544213,45.5761157 34.9544213,44.9086651 C34.9544213,44.2412145 34.7362093,43.6879413 34.2997788,43.248829 C33.8633482,42.8097168 33.313454,42.5901639 32.6500795,42.5901639 C31.9867051,42.5901639 31.4368108,42.8097168 31.0003803,43.248829 C30.5639497,43.6879413 30.3457377,44.2412145 30.3457377,44.9086651 L30.3457377,44.9086651 Z M30.3457377,55.1048009 C30.3457377,55.7722516 30.5726782,56.3167426 31.026566,56.7382904 C31.4804537,57.1949672 32.0216195,57.4233021 32.6500795,57.4233021 C33.313454,57.4233021 33.8633482,57.2037493 34.2997788,56.764637 C34.7362093,56.3255247 34.9544213,55.7722516 34.9544213,55.1048009 C34.9544213,54.4373503 34.7318451,53.870904 34.2866859,53.405445 C33.8415267,52.939986 33.2959967,52.70726 32.6500795,52.70726 C32.0041623,52.70726 31.4586323,52.939986 31.0134731,53.405445 C30.5683139,53.870904 30.3457377,54.4373503 30.3457377,55.1048009 L30.3457377,55.1048009 Z M39.2750622,50.2306792 C39.2750622,50.8805653 39.5107312,51.4557938 39.9820762,51.9563817 C40.4534212,52.4569697 40.994587,52.70726 41.6055897,52.70726 C42.251507,52.70726 42.8101297,52.4613608 43.2814747,51.969555 C43.7528197,51.4777493 43.9884887,50.8981298 43.9884887,50.2306792 C43.9884887,49.615922 43.7528197,49.075822 43.2814747,48.610363 C42.8101297,48.144904 42.251507,47.912178 41.6055897,47.912178 C40.994587,47.912178 40.4534212,48.144904 39.9820762,48.610363 C39.5107312,49.075822 39.2750622,49.615922 39.2750622,50.2306792 L39.2750622,50.2306792 Z M39.2750622,40.1399297 C39.2750622,40.7722514 39.5020027,41.3167424 39.9558905,41.7734192 C40.4097783,42.230096 40.9596725,42.4584309 41.6055897,42.4584309 C42.2689642,42.4584309 42.8319512,42.234487 43.2945675,41.7865925 C43.7571839,41.338698 43.9884887,40.7898159 43.9884887,40.1399297 C43.9884887,39.4900436 43.7571839,38.9323794 43.2945675,38.4669204 C42.8319512,38.0014614 42.2689642,37.7687354 41.6055897,37.7687354 C40.9771297,37.7687354 40.4315997,38.0014614 39.9689833,38.4669204 C39.5063669,38.9323794 39.2750622,39.4900436 39.2750622,40.1399297 L39.2750622,40.1399297 Z M39.2750622,60.558548 C39.2750622,61.2084342 39.5063669,61.7704894 39.9689833,62.2447307 C40.4315997,62.7189719 40.9771297,62.956089 41.6055897,62.956089 C42.251507,62.956089 42.8101297,62.723363 43.2814747,62.257904 C43.7528197,61.792445 43.9884887,61.2259987 43.9884887,60.558548 C43.9884887,59.9437908 43.7528197,59.4036909 43.2814747,58.9382319 C42.8101297,58.4727728 42.251507,58.2400468 41.6055897,58.2400468 C40.994587,58.2400468 40.4534212,58.4727728 39.9820762,58.9382319 C39.5107312,59.4036909 39.2750622,59.9437908 39.2750622,60.558548 L39.2750622,60.558548 Z M48.3091296,44.9086651 C48.3091296,45.4882933 48.53607,46.0240022 48.9899578,46.515808 C49.4613028,46.9900492 50.0199256,47.2271663 50.6658428,47.2271663 C51.31176,47.2271663 51.85729,47.0076134 52.3024492,46.5685012 C52.7476084,46.1293889 52.9701846,45.5761157 52.9701846,44.9086651 C52.9701846,44.2412145 52.7519726,43.6879413 52.315542,43.248829 C51.8791115,42.8097168 51.3292172,42.5901639 50.6658428,42.5901639 C50.0024683,42.5901639 49.4438456,42.8097168 48.9899578,43.248829 C48.53607,43.6879413 48.3091296,44.2412145 48.3091296,44.9086651 L48.3091296,44.9086651 Z M48.3091296,55.1048009 C48.3091296,55.7371226 48.53607,56.2816136 48.9899578,56.7382904 C49.4438456,57.1949672 50.0024683,57.4233021 50.6658428,57.4233021 C51.3292172,57.4233021 51.8791115,57.2037493 52.315542,56.764637 C52.7519726,56.3255247 52.9701846,55.7722516 52.9701846,55.1048009 C52.9701846,54.4373503 52.7476084,53.870904 52.3024492,53.405445 C51.85729,52.939986 51.31176,52.70726 50.6658428,52.70726 C50.0199256,52.70726 49.4656671,52.939986 49.0030507,53.405445 C48.5404343,53.870904 48.3091296,54.4373503 48.3091296,55.1048009 L48.3091296,55.1048009 Z M51.0586283,11.2113583 C52.9440083,9.31439333 55.2570556,8.36592506 57.9978395,8.36592506 C60.7386234,8.36592506 63.0647633,9.34073967 64.9763292,11.2903981 C66.887895,13.2400566 67.8436636,15.6024451 67.8436636,18.3776347 C67.8436636,20.0286968 67.3723256,21.749991 66.4296356,23.5415691 C63.7412234,20.8366375 60.4855003,19.484192 56.6623686,19.484192 L55.7982405,19.484192 C54.977751,16.2171968 53.3978961,13.4596131 51.0586283,11.2113583 L51.0586283,11.2113583 Z" id="sn" fill="#5484ED"></path>
                </g>
            </g>
            <g id="Group-5" transform="translate(64.000000, 0.000000)" sketch:type="MSShapeGroup">
                <g id="Group-2" transform="translate(9.500000, 14.000000) rotate(270.000000) translate(-9.500000, -14.000000) translate(-4.000000, 5.000000)" fill="#C3C1C1">
                    <g id="Group-3">
                        <path d="M22.0909091,0.0196827328 L22.0909091,0 L0,0 L0,18 L22.0909091,18 L22.0909091,17.9803173 C22.1923197,17.9933704 22.2946276,18 22.3977273,18 C24.9394923,18 27,13.9705627 27,9 C27,4.02943725 24.9394923,0 22.3977273,0 C22.2946276,0 22.1923197,0.00662961233 22.0909091,0.0196827328 Z" id="Rectangle-8"></path>
                        <path d="M22.0909091,0.0196827328 L22.0909091,0 L0,0 L0,18 L22.0909091,18 L22.0909091,17.9803173 C22.1923197,17.9933704 22.2946276,18 22.3977273,18 C24.9394923,18 27,13.9705627 27,9 C27,4.02943725 24.9394923,0 22.3977273,0 C22.2946276,0 22.1923197,0.00662961233 22.0909091,0.0196827328 Z" id="Rectangle-8"></path>
                    </g>
                </g>
                <g id="Group-2" transform="translate(9.500000, 13.500000) rotate(270.000000) translate(-9.500000, -13.500000) translate(-2.000000, 8.000000)" fill="#D7D7D7">
                    <g id="Group-3">
                        <path d="M18.4090909,0.0120283367 L18.4090909,0 L0,0 L0,11 L18.4090909,11 L18.4090909,10.9879717 C18.4935998,10.9959486 18.5788563,11 18.6647727,11 C20.7829103,11 22.5,8.53756612 22.5,5.5 C22.5,2.46243388 20.7829103,0 18.6647727,0 C18.5788563,0 18.4935998,0.00405142976 18.4090909,0.0120283367 Z" id="Rectangle-8"></path>
                        <path d="M18.4090909,0.0120283367 L18.4090909,0 L0,0 L0,11 L18.4090909,11 L18.4090909,10.9879717 C18.4935998,10.9959486 18.5788563,11 18.6647727,11 C20.7829103,11 22.5,8.53756612 22.5,5.5 C22.5,2.46243388 20.7829103,0 18.6647727,0 C18.5788563,0 18.4935998,0.00405142976 18.4090909,0.0120283367 Z" id="Rectangle-8"></path>
                    </g>
                </g>
            </g>
            <g id="Group-5" transform="translate(19.000000, 0.000000)" sketch:type="MSShapeGroup">
                <g id="Group-2" transform="translate(9.500000, 14.000000) rotate(270.000000) translate(-9.500000, -14.000000) translate(-4.000000, 5.000000)" fill="#C3C1C1">
                    <g id="Group-3">
                        <path d="M22.0909091,0.0196827328 L22.0909091,0 L0,0 L0,18 L22.0909091,18 L22.0909091,17.9803173 C22.1923197,17.9933704 22.2946276,18 22.3977273,18 C24.9394923,18 27,13.9705627 27,9 C27,4.02943725 24.9394923,0 22.3977273,0 C22.2946276,0 22.1923197,0.00662961233 22.0909091,0.0196827328 Z" id="Rectangle-8"></path>
                        <path d="M22.0909091,0.0196827328 L22.0909091,0 L0,0 L0,18 L22.0909091,18 L22.0909091,17.9803173 C22.1923197,17.9933704 22.2946276,18 22.3977273,18 C24.9394923,18 27,13.9705627 27,9 C27,4.02943725 24.9394923,0 22.3977273,0 C22.2946276,0 22.1923197,0.00662961233 22.0909091,0.0196827328 Z" id="Rectangle-8"></path>
                    </g>
                </g>
                <g id="Group-2" transform="translate(9.500000, 13.500000) rotate(270.000000) translate(-9.500000, -13.500000) translate(-2.000000, 8.000000)" fill="#D7D7D7">
                    <g id="Group-3">
                        <path d="M18.4090909,0.0120283367 L18.4090909,0 L0,0 L0,11 L18.4090909,11 L18.4090909,10.9879717 C18.4935998,10.9959486 18.5788563,11 18.6647727,11 C20.7829103,11 22.5,8.53756612 22.5,5.5 C22.5,2.46243388 20.7829103,0 18.6647727,0 C18.5788563,0 18.4935998,0.00405142976 18.4090909,0.0120283367 Z" id="Rectangle-8"></path>
                        <path d="M18.4090909,0.0120283367 L18.4090909,0 L0,0 L0,11 L18.4090909,11 L18.4090909,10.9879717 C18.4935998,10.9959486 18.5788563,11 18.6647727,11 C20.7829103,11 22.5,8.53756612 22.5,5.5 C22.5,2.46243388 20.7829103,0 18.6647727,0 C18.5788563,0 18.4935998,0.00405142976 18.4090909,0.0120283367 Z" id="Rectangle-8"></path>
                    </g>
                </g>
            </g>
        </g>
    </g>
</svg>