<?xml version="1.0" encoding="UTF-8" standalone="no"?>
<svg width="201px" height="205px" viewBox="0 0 201 205" version="1.1" xmlns="http://www.w3.org/2000/svg" xmlns:xlink="http://www.w3.org/1999/xlink" xmlns:sketch="http://www.bohemiancoding.com/sketch/ns">
    <!-- Generator: Sketch 3.5.2 (25235) - http://www.bohemiancoding.com/sketch -->
    <title>Group 8</title>
    <desc>Created with Sketch.</desc>
    <defs>
        <linearGradient x1="0%" y1="0%" x2="95.9244791%" y2="100%" id="linearGradient-1">
            <stop stop-color="#538CFF" offset="0%"></stop>
            <stop stop-color="#7DF2FF" offset="100%"></stop>
        </linearGradient>
        <filter x="-50%" y="-50%" width="200%" height="200%" filterUnits="objectBoundingBox" id="filter-2">
            <feOffset dx="4" dy="4" in="SourceAlpha" result="shadowOffsetOuter1"></feOffset>
            <feGaussianBlur stdDeviation="5" in="shadowOffsetOuter1" result="shadowBlurOuter1"></feGaussianBlur>
            <feColorMatrix values="0 0 0 0 0   0 0 0 0 0   0 0 0 0 0  0 0 0 0.377224864 0" in="shadowBlurOuter1" type="matrix" result="shadowMatrixOuter1"></feColorMatrix>
            <feMerge>
                <feMergeNode in="shadowMatrixOuter1"></feMergeNode>
                <feMergeNode in="SourceGraphic"></feMergeNode>
            </feMerge>
        </filter>
        <filter x="-50%" y="-50%" width="200%" height="200%" filterUnits="objectBoundingBox" id="filter-3">
            <feOffset dx="2" dy="2" in="SourceAlpha" result="shadowOffsetOuter1"></feOffset>
            <feGaussianBlur stdDeviation="5" in="shadowOffsetOuter1" result="shadowBlurOuter1"></feGaussianBlur>
            <feColorMatrix values="0 0 0 0 0   0 0 0 0 0   0 0 0 0 0  0 0 0 0.35 0" in="shadowBlurOuter1" type="matrix" result="shadowMatrixOuter1"></feColorMatrix>
            <feMerge>
                <feMergeNode in="shadowMatrixOuter1"></feMergeNode>
                <feMergeNode in="SourceGraphic"></feMergeNode>
            </feMerge>
        </filter>
        <filter x="-50%" y="-50%" width="200%" height="200%" filterUnits="objectBoundingBox" id="filter-4">
            <feOffset dx="2" dy="2" in="SourceAlpha" result="shadowOffsetOuter1"></feOffset>
            <feGaussianBlur stdDeviation="2" in="shadowOffsetOuter1" result="shadowBlurOuter1"></feGaussianBlur>
            <feColorMatrix values="0 0 0 0 0   0 0 0 0 0   0 0 0 0 0  0 0 0 0.35 0" in="shadowBlurOuter1" type="matrix" result="shadowMatrixOuter1"></feColorMatrix>
            <feMerge>
                <feMergeNode in="shadowMatrixOuter1"></feMergeNode>
                <feMergeNode in="SourceGraphic"></feMergeNode>
            </feMerge>
        </filter>
        <filter x="-50%" y="-50%" width="200%" height="200%" filterUnits="objectBoundingBox" id="filter-5">
            <feOffset dx="2" dy="2" in="SourceAlpha" result="shadowOffsetOuter1"></feOffset>
            <feGaussianBlur stdDeviation="2" in="shadowOffsetOuter1" result="shadowBlurOuter1"></feGaussianBlur>
            <feColorMatrix values="0 0 0 0 0   0 0 0 0 0   0 0 0 0 0  0 0 0 0.35 0" in="shadowBlurOuter1" type="matrix" result="shadowMatrixOuter1"></feColorMatrix>
            <feMerge>
                <feMergeNode in="shadowMatrixOuter1"></feMergeNode>
                <feMergeNode in="SourceGraphic"></feMergeNode>
            </feMerge>
        </filter>
        <filter x="-50%" y="-50%" width="200%" height="200%" filterUnits="objectBoundingBox" id="filter-6">
            <feOffset dx="2" dy="2" in="SourceAlpha" result="shadowOffsetOuter1"></feOffset>
            <feGaussianBlur stdDeviation="2" in="shadowOffsetOuter1" result="shadowBlurOuter1"></feGaussianBlur>
            <feColorMatrix values="0 0 0 0 0   0 0 0 0 0   0 0 0 0 0  0 0 0 0.35 0" in="shadowBlurOuter1" type="matrix" result="shadowMatrixOuter1"></feColorMatrix>
            <feMerge>
                <feMergeNode in="shadowMatrixOuter1"></feMergeNode>
                <feMergeNode in="SourceGraphic"></feMergeNode>
            </feMerge>
        </filter>
        <filter x="-50%" y="-50%" width="200%" height="200%" filterUnits="objectBoundingBox" id="filter-7">
            <feOffset dx="2" dy="2" in="SourceAlpha" result="shadowOffsetOuter1"></feOffset>
            <feGaussianBlur stdDeviation="2" in="shadowOffsetOuter1" result="shadowBlurOuter1"></feGaussianBlur>
            <feColorMatrix values="0 0 0 0 0   0 0 0 0 0   0 0 0 0 0  0 0 0 0.35 0" in="shadowBlurOuter1" type="matrix" result="shadowMatrixOuter1"></feColorMatrix>
            <feMerge>
                <feMergeNode in="shadowMatrixOuter1"></feMergeNode>
                <feMergeNode in="SourceGraphic"></feMergeNode>
            </feMerge>
        </filter>
        <filter x="-50%" y="-50%" width="200%" height="200%" filterUnits="objectBoundingBox" id="filter-8">
            <feOffset dx="2" dy="2" in="SourceAlpha" result="shadowOffsetOuter1"></feOffset>
            <feGaussianBlur stdDeviation="2" in="shadowOffsetOuter1" result="shadowBlurOuter1"></feGaussianBlur>
            <feColorMatrix values="0 0 0 0 0   0 0 0 0 0   0 0 0 0 0  0 0 0 0.35 0" in="shadowBlurOuter1" type="matrix" result="shadowMatrixOuter1"></feColorMatrix>
            <feMerge>
                <feMergeNode in="shadowMatrixOuter1"></feMergeNode>
                <feMergeNode in="SourceGraphic"></feMergeNode>
            </feMerge>
        </filter>
        <filter x="-50%" y="-50%" width="200%" height="200%" filterUnits="objectBoundingBox" id="filter-9">
            <feOffset dx="2" dy="2" in="SourceAlpha" result="shadowOffsetOuter1"></feOffset>
            <feGaussianBlur stdDeviation="2" in="shadowOffsetOuter1" result="shadowBlurOuter1"></feGaussianBlur>
            <feColorMatrix values="0 0 0 0 0   0 0 0 0 0   0 0 0 0 0  0 0 0 0.35 0" in="shadowBlurOuter1" type="matrix" result="shadowMatrixOuter1"></feColorMatrix>
            <feMerge>
                <feMergeNode in="shadowMatrixOuter1"></feMergeNode>
                <feMergeNode in="SourceGraphic"></feMergeNode>
            </feMerge>
        </filter>
        <filter x="-50%" y="-50%" width="200%" height="200%" filterUnits="objectBoundingBox" id="filter-10">
            <feOffset dx="2" dy="2" in="SourceAlpha" result="shadowOffsetOuter1"></feOffset>
            <feGaussianBlur stdDeviation="2" in="shadowOffsetOuter1" result="shadowBlurOuter1"></feGaussianBlur>
            <feColorMatrix values="0 0 0 0 0   0 0 0 0 0   0 0 0 0 0  0 0 0 0.35 0" in="shadowBlurOuter1" type="matrix" result="shadowMatrixOuter1"></feColorMatrix>
            <feMerge>
                <feMergeNode in="shadowMatrixOuter1"></feMergeNode>
                <feMergeNode in="SourceGraphic"></feMergeNode>
            </feMerge>
        </filter>
        <filter x="-50%" y="-50%" width="200%" height="200%" filterUnits="objectBoundingBox" id="filter-11">
            <feOffset dx="2" dy="2" in="SourceAlpha" result="shadowOffsetOuter1"></feOffset>
            <feGaussianBlur stdDeviation="2" in="shadowOffsetOuter1" result="shadowBlurOuter1"></feGaussianBlur>
            <feColorMatrix values="0 0 0 0 0   0 0 0 0 0   0 0 0 0 0  0 0 0 0.35 0" in="shadowBlurOuter1" type="matrix" result="shadowMatrixOuter1"></feColorMatrix>
            <feMerge>
                <feMergeNode in="shadowMatrixOuter1"></feMergeNode>
                <feMergeNode in="SourceGraphic"></feMergeNode>
            </feMerge>
        </filter>
        <filter x="-50%" y="-50%" width="200%" height="200%" filterUnits="objectBoundingBox" id="filter-12">
            <feOffset dx="2" dy="2" in="SourceAlpha" result="shadowOffsetOuter1"></feOffset>
            <feGaussianBlur stdDeviation="2" in="shadowOffsetOuter1" result="shadowBlurOuter1"></feGaussianBlur>
            <feColorMatrix values="0 0 0 0 0   0 0 0 0 0   0 0 0 0 0  0 0 0 0.35 0" in="shadowBlurOuter1" type="matrix" result="shadowMatrixOuter1"></feColorMatrix>
            <feMerge>
                <feMergeNode in="shadowMatrixOuter1"></feMergeNode>
                <feMergeNode in="SourceGraphic"></feMergeNode>
            </feMerge>
        </filter>
        <filter x="-50%" y="-50%" width="200%" height="200%" filterUnits="objectBoundingBox" id="filter-13">
            <feOffset dx="9" dy="9" in="SourceAlpha" result="shadowOffsetOuter1"></feOffset>
            <feGaussianBlur stdDeviation="7.5" in="shadowOffsetOuter1" result="shadowBlurOuter1"></feGaussianBlur>
            <feColorMatrix values="0 0 0 0 1   0 0 0 0 1   0 0 0 0 1  0 0 0 0.7 0" in="shadowBlurOuter1" type="matrix" result="shadowMatrixOuter1"></feColorMatrix>
            <feMerge>
                <feMergeNode in="shadowMatrixOuter1"></feMergeNode>
                <feMergeNode in="SourceGraphic"></feMergeNode>
            </feMerge>
        </filter>
        <linearGradient x1="17.4099915%" y1="0%" x2="88.6810573%" y2="100%" id="linearGradient-14">
            <stop stop-color="#80FBFF" offset="0%"></stop>
            <stop stop-color="#4D7FFF" offset="100%"></stop>
        </linearGradient>
        <filter x="-50%" y="-50%" width="200%" height="200%" filterUnits="objectBoundingBox" id="filter-15">
            <feOffset dx="2" dy="2" in="SourceAlpha" result="shadowOffsetOuter1"></feOffset>
            <feGaussianBlur stdDeviation="2" in="shadowOffsetOuter1" result="shadowBlurOuter1"></feGaussianBlur>
            <feColorMatrix values="0 0 0 0 1   0 0 0 0 1   0 0 0 0 1  0 0 0 0.35 0" in="shadowBlurOuter1" type="matrix" result="shadowMatrixOuter1"></feColorMatrix>
            <feMerge>
                <feMergeNode in="shadowMatrixOuter1"></feMergeNode>
                <feMergeNode in="SourceGraphic"></feMergeNode>
            </feMerge>
        </filter>
    </defs>
    <g id="Page-1" stroke="none" stroke-width="1" fill="none" fill-rule="evenodd" sketch:type="MSPage">
        <g id="Group-8" sketch:type="MSLayerGroup" transform="translate(-15.000000, -17.000000)">
            <g id="Group-2" sketch:type="MSShapeGroup">
                <path d="M199.37207,47.1435547 L215.091797,63.4257813 L215.091797,213.969828 L153.416016,213.969828 L64.1679687,146.064455 L199.37207,47.1435547 Z" id="Path-38" fill-opacity="0.0975147192" fill="#000000"></path>
                <path d="M199.287129,47.5920206 L199.287129,171.68293 L64.1386139,146.363636 L64.1386139,22.2727273 L199.287129,47.5920206 Z" id="Rectangle-37" fill="url(#linearGradient-1)" filter="url(#filter-2)"></path>
                <path d="M178.49505,61.4090909 L178.49505,185.5 L43.3465347,159.727273 L43.3465347,35.6363636 L178.49505,61.4090909 Z" id="Rectangle-37" fill-opacity="0.432659647" fill="#FFFFFF" filter="url(#filter-3)"></path>
                <path d="M170.178218,145.886364 L170.178218,175.477273 L137.950495,168.799678 L137.950495,139.208769 L170.178218,145.886364 Z" id="Rectangle-38-Copy-45" fill-opacity="0.682008605" fill="#FFFFFF" filter="url(#filter-4)"></path>
                <path d="M127.554455,137.054706 L127.554455,166.645615 L95.3267327,159.968021 L95.3267327,130.377112 L127.554455,137.054706 Z" id="Rectangle-38-Copy-44" fill-opacity="0.682008605" fill="#FFFFFF" filter="url(#filter-5)"></path>
                <path d="M84.9306931,128.223049 L84.9306931,157.813958 L52.7029703,151.136364 L52.7029703,121.545455 L84.9306931,128.223049 Z" id="Rectangle-38-Copy-43" fill-opacity="0.682008605" fill="#FFFFFF" filter="url(#filter-6)"></path>
                <path d="M170.178218,106.75 L170.178218,136.340909 L137.950495,129.663315 L137.950495,100.072405 L170.178218,106.75 Z" id="Rectangle-38-Copy-42" fill-opacity="0.682008605" fill="#FFFFFF" filter="url(#filter-7)"></path>
                <path d="M127.554455,97.9183427 L127.554455,127.509252 L95.3267327,120.831657 L95.3267327,91.2407482 L127.554455,97.9183427 Z" id="Rectangle-38-Copy-41" fill-opacity="0.682008605" fill="#FFFFFF" filter="url(#filter-8)"></path>
                <path d="M177.912398,184.408338 L179.047852,61.7832031 L215.548739,90.2768884 L215.548737,214.000001 L112.732422,214.000001 L40.2277228,157.03 L177.912398,184.408338 Z" id="Path-38" fill-opacity="0.0975147192" fill="#000000"></path>
                <path d="M84.9306931,89.0866854 L84.9306931,118.677595 L52.7029703,112 L52.7029703,82.4090909 L84.9306931,89.0866854 Z" id="Rectangle-38-Copy-40" fill-opacity="0.682008605" fill="#FFFFFF" filter="url(#filter-9)"></path>
                <path d="M170.178218,67.6136364 L170.178218,97.2045455 L137.950495,90.5269509 L137.950495,60.9360418 L170.178218,67.6136364 Z" id="Rectangle-38-Copy-39" fill-opacity="0.682008605" fill="#FFFFFF" filter="url(#filter-10)"></path>
                <path d="M127.554455,58.7819791 L127.554455,88.3728882 L95.3267327,81.6952936 L95.3267327,52.1043846 L127.554455,58.7819791 Z" id="Rectangle-38-Copy" fill-opacity="0.682008605" fill="#FFFFFF" filter="url(#filter-11)"></path>
                <path d="M84.9306931,49.9503218 L84.9306931,79.5412309 L52.7029703,72.8636364 L52.7029703,43.2727273 L84.9306931,49.9503218 Z" id="Rectangle-38" fill-opacity="0.682008605" fill="#FFFFFF" filter="url(#filter-12)"></path>
                <g id="Group-5" transform="translate(21.554455, 49.000000)">
                    <path d="M0,124.090909 L0,0 L135.148515,26.0220868 L135.148515,150.112996 L0,124.090909 Z" id="Rectangle-37" fill-opacity="0.177380548" fill="#FFFFFF" filter="url(#filter-13)"></path>
                    <path d="M36.6159099,97.5512152 C37.1321296,97.7355569 37.3902356,97.5874025 37.3902356,97.1067476 L37.3902356,91.2588091 C37.3902356,90.7514512 37.1321296,90.4056065 36.6159099,90.2212648 C32.6295465,88.5040035 29.2741686,85.8304789 26.5496757,82.2006109 C23.8251827,78.5707429 22.4629566,74.9400559 22.4629566,71.3084413 C22.4629566,67.7302327 23.7606562,65.0761061 26.3560942,63.3459819 C28.9515323,61.6158578 32.1563483,61.2849741 35.9706384,62.3533211 L38.3796518,62.8931432 C38.9819081,63.1082086 39.2830318,62.9754158 39.2830318,62.4947609 L39.6271765,60.4146642 C40.1147174,55.9691372 42.2082437,52.8515257 45.9078184,51.0617362 C49.607393,49.2719467 53.9665164,49.2731575 58.9853192,51.0653687 C63.9754432,52.8473387 68.3345665,55.9527324 72.0628201,60.381643 C75.7910736,64.8105536 77.9132784,69.4402756 78.4294981,74.2709478 L78.7736429,76.8772129 C78.7736429,77.3845708 79.0460881,77.735536 79.5909867,77.9301189 L86.990099,80.5723371 C91.1485356,82.0573121 94.697493,84.6731262 97.6370775,88.4198578 C100.576662,92.1665895 102.046432,95.9358153 102.046432,99.7276483 C102.046432,103.359263 100.684206,106.01705 97.9597132,107.701089 C95.2352202,109.385127 91.8798424,109.662245 87.893479,108.532451 C87.2912227,108.317386 86.990099,108.46353 86.990099,108.970888 L86.990099,114.818826 C86.990099,115.299481 87.2912227,115.647336 87.893479,115.862402 C94.002079,117.856857 99.1713684,117.553244 103.401502,114.951552 C107.631636,112.349861 109.746671,108.191851 109.746671,102.477399 C109.746671,98.6588625 108.699908,94.7603145 106.60635,90.7816374 C110.277246,88.9949582 112.643218,86.1682309 113.704336,82.3013708 L114.392625,79.4629717 C114.421304,79.4465099 114.435644,79.3581712 114.435644,79.1979529 C114.435644,78.8775163 114.191877,78.5634948 113.704336,78.255879 L111.037214,76.5824728 C108.427437,74.9562437 106.204857,72.9876456 104.369409,70.6766193 C102.533961,68.365593 101.229092,66.1439259 100.454763,64.0115514 C99.6804331,61.8791769 99.2932742,59.8650616 99.2932742,57.9691451 C99.2932742,56.9277262 99.4366664,55.8574203 99.7234551,54.7581951 L100.368727,52.3450325 C100.512121,51.9956928 100.297033,51.5984531 99.7234551,51.1533015 L96.1099351,48.8215022 C94.102414,47.6506659 92.1952975,46.7426633 90.3885285,46.0974673 C88.7251539,45.5034773 87.0187865,45.0810531 85.2693752,44.8301822 C83.5199639,44.5793113 81.6988828,44.509787 79.8060772,44.6216073 C77.9132715,44.7334276 76.0778512,45.2128627 74.299761,46.0599271 C72.5216709,46.9069916 70.9873742,48.101443 69.6968249,49.6433174 C66.4561122,47.2043147 62.885646,45.28844 58.9853192,43.8956358 C52.5038938,41.5811231 46.7610356,41.3928619 41.7565722,43.3308467 C36.7521088,45.2688314 33.5329536,48.8923716 32.0990099,54.201576 C27.0515282,53.5206516 22.8788147,54.5072491 19.5807443,57.1613978 C16.2826738,59.8155466 14.6336634,63.5992447 14.6336634,68.5126058 C14.6336634,74.2003552 16.7630378,79.8473381 21.0218505,85.4537239 C25.2806632,91.0601096 30.478631,95.0925664 36.6159099,97.5512152 Z M60.3618983,105.630348 L54.339365,121.183739 L55.715944,121.675314 L74.8589962,104.638879 C75.0310695,104.513405 75.0740871,104.335172 74.9880505,104.104176 C74.9020139,103.873179 74.7012648,103.701357 74.3857972,103.588704 L64.2765449,99.9786963 L74.8589962,85.7732691 C75.1744639,85.2717522 74.9593755,84.8878639 74.2137248,84.6215925 L60.706043,79.7980082 C60.3332177,79.6648725 60.0034156,79.7473702 59.7166268,80.0455039 L49.822465,100.945473 C49.593034,101.477713 49.8081223,101.861602 50.4677364,102.09715 L60.3618983,105.630348 Z M90.4315466,53.4828337 C91.0051241,53.6876579 91.4209615,53.8628558 91.6790714,54.0084327 L91.6790714,55.3302271 C91.6790714,59.4424966 92.8692267,63.7527357 95.2495732,68.2610736 C97.6299197,72.7694115 100.94228,76.74268 105.186753,80.1809981 C104.469781,81.5004478 103.322644,82.6128567 101.745306,83.518258 C97.5295112,78.6482164 92.6111582,75.2096089 86.990099,73.2023324 L85.5274838,72.6800334 C84.2369345,66.8785693 81.2113587,61.3120932 76.4506658,55.9804382 C77.970646,54.0932447 79.9996459,52.9619651 82.5377262,52.5865655 C85.0758065,52.211166 87.7070536,52.5099191 90.4315466,53.4828337 Z" id="Type-something" fill="url(#linearGradient-14)" filter="url(#filter-15)"></path>
                </g>
                <path d="M158.426946,198.386895 L158.426953,75.9091798 L215.718747,123.777345 L215.718747,213.999997 L77.4882819,213.999997 L22.5544554,174.211818 L158.426946,198.386895 Z" id="Path-38" fill-opacity="0.13391644" fill="#000000"></path>
            </g>
        </g>
    </g>
</svg>